<svg width="77" height="51" viewBox="0 0 77 51" fill="none" xmlns="http://www.w3.org/2000/svg">
<g clip-path="url(#clip0_1_831)">
<path d="M4.65278 10.3984C4.65278 10.8056 4.92223 11.1341 5.4611 11.3837C6.09474 11.6677 6.75518 11.8878 7.4326 12.0405C8.21657 12.2406 8.98883 12.4841 9.74581 12.7697C10.5279 13.0691 11.2107 13.581 11.7173 14.2477C12.2736 14.9907 12.5588 15.9017 12.5256 16.8292C12.5598 17.5292 12.417 18.2266 12.1103 18.8569C11.8036 19.4872 11.343 20.0301 10.771 20.4354C9.48882 21.3115 7.95945 21.7535 6.40742 21.6967C3.28808 21.6967 1.15886 20.4902 0.0197754 18.0773L3.42389 16.1657C3.862 17.4795 4.85651 18.1364 6.40742 18.1364C7.80718 18.1364 8.50377 17.7028 8.50377 16.8226C8.50377 16.4219 8.24091 16.0935 7.70204 15.8373C7.06608 15.5593 6.40621 15.3394 5.73054 15.1804C4.94575 14.9701 4.17345 14.7157 3.41732 14.4184C2.64545 14.1166 1.96584 13.6184 1.44583 12.9733C0.89164 12.2695 0.605214 11.392 0.637512 10.4969C0.609481 9.81632 0.745251 9.13898 1.03342 8.52174C1.32159 7.90451 1.75374 7.36541 2.29357 6.94974C3.47948 6.05495 4.93538 5.59149 6.42056 5.63599C7.59882 5.62825 8.75944 5.92224 9.79182 6.48993C10.7999 7.04333 11.6313 7.86981 12.1905 8.87439L8.8455 10.7005C8.64956 10.2231 8.31075 9.81783 7.87547 9.54032C7.4402 9.2628 6.92973 9.12657 6.41399 9.15028C5.96928 9.13269 5.52959 9.24943 5.15224 9.48529C4.9964 9.58057 4.86828 9.71501 4.78065 9.87522C4.69301 10.0354 4.64892 10.2158 4.65278 10.3984Z" fill="#041223"/>
<path d="M23.2702 9.85319H19.8332V16.1789C19.8141 16.388 19.84 16.5988 19.9091 16.7971C19.9783 16.9954 20.089 17.1765 20.2341 17.3285C20.558 17.5953 20.9644 17.7415 21.3841 17.7423C22.0123 17.7779 22.642 17.7779 23.2702 17.7423V21.296C20.5758 21.6047 18.67 21.3486 17.566 20.5406C16.4619 19.7326 15.9099 18.2744 15.9099 16.1921V9.85319H13.2812V6.08272H15.9099V3.00853L19.8529 1.81958V6.08272H23.2899L23.2702 9.85319Z" fill="#041223"/>
<path d="M36.328 6.08276H40.271V21.2829H36.328V19.5816C35.3686 21.0005 33.8636 21.7099 31.7936 21.7099C31.027 21.7326 30.2641 21.5953 29.5535 21.3069C28.843 21.0185 28.2003 20.5853 27.6666 20.0348C27.1054 19.4137 26.6731 18.6875 26.3945 17.8982C26.1158 17.109 25.9965 16.2723 26.0434 15.4367V6.08276H29.9864V14.9506C29.9584 15.3736 30.0168 15.7979 30.1581 16.1977C30.2993 16.5974 30.5203 16.9643 30.8078 17.276C31.0994 17.551 31.4435 17.7643 31.8195 17.9031C32.1956 18.042 32.5958 18.1035 32.9962 18.0839C33.4453 18.1003 33.8929 18.0229 34.3105 17.8566C34.728 17.6903 35.1063 17.4389 35.4211 17.1183C36.0823 16.3318 36.41 15.3183 36.3346 14.2937L36.328 6.08276Z" fill="#041223"/>
<path d="M55.3728 0H59.3158V21.2828H55.3728V19.4896C54.7869 20.2246 54.0342 20.8094 53.177 21.1955C52.3199 21.5816 51.383 21.7579 50.444 21.7098C49.4523 21.7206 48.4698 21.5187 47.5629 21.1175C46.6559 20.7164 45.8457 20.1254 45.1867 19.3845C43.7809 17.8178 43.0034 15.7873 43.0034 13.6828C43.0034 11.5782 43.7809 9.54778 45.1867 7.98107C45.8457 7.24016 46.6559 6.64918 47.5629 6.24803C48.4698 5.84688 49.4523 5.6449 50.444 5.65572C51.3834 5.60432 52.3214 5.77915 53.1791 6.16552C54.0368 6.55188 54.7891 7.13848 55.3728 7.87597V0ZM48.144 16.7701C48.5427 17.1686 49.0191 17.481 49.5436 17.6878C50.0682 17.8946 50.6297 17.9914 51.1932 17.9722C51.7507 17.9899 52.3058 17.8922 52.8237 17.6854C53.3417 17.4785 53.8113 17.1669 54.203 16.7701C54.9696 15.9244 55.3941 14.824 55.3941 13.6828C55.3941 12.5416 54.9696 11.4411 54.203 10.5954C53.8113 10.1986 53.3417 9.88702 52.8237 9.68016C52.3058 9.4733 51.7507 9.37566 51.1932 9.39336C50.6329 9.37686 50.0752 9.47498 49.5543 9.68169C49.0333 9.8884 48.5601 10.1993 48.1637 10.5954C47.3971 11.4411 46.9726 12.5416 46.9726 13.6828C46.9726 14.824 47.3971 15.9244 48.1637 16.7701H48.144Z" fill="#041223"/>
<path d="M72.8008 6.08276H77.0001L71.4668 21.2829C70.6716 23.4769 69.6267 25.06 68.3124 26.0453C66.8961 27.0565 65.1624 27.5229 63.4296 27.359V23.7134C64.3166 23.7838 65.2013 23.5523 65.94 23.0565C66.6428 22.4662 67.1568 21.6828 67.4186 20.8034L61.1821 6.08276H65.4734L69.4164 16.2972L72.8008 6.08276Z" fill="#041223"/>
<path d="M12.9001 29.2835H16.7314V43.7349C16.7314 46.0865 15.9559 47.8797 14.405 49.1147C12.8074 50.3677 10.8229 51.025 8.79282 50.9736C7.2926 51.0053 5.80623 50.6811 4.45554 50.0277C3.23482 49.4255 2.23134 48.4592 1.58373 47.2623L4.9287 45.3442C5.69978 46.7631 7.02725 47.4725 8.91112 47.4725C9.97449 47.5346 11.0212 47.1867 11.8355 46.5003C12.2012 46.1428 12.4856 45.7107 12.6693 45.2335C12.853 44.7563 12.9317 44.2452 12.9001 43.7349V42.0927C12.3397 42.8469 11.6026 43.4522 10.7536 43.8553C9.90455 44.2585 8.96952 44.4472 8.03052 44.4049C7.02141 44.4273 6.01887 44.2371 5.08816 43.8467C4.15745 43.4562 3.31942 42.8742 2.62862 42.1386C1.22533 40.6464 0.444092 38.6754 0.444092 36.6274C0.444092 34.5794 1.22533 32.6085 2.62862 31.1162C3.31415 30.3779 4.14796 29.7926 5.07546 29.3987C6.00295 29.0047 7.00323 28.8111 8.0108 28.8303C8.9498 28.788 9.88484 28.9767 10.7339 29.3798C11.5829 29.783 12.32 30.3882 12.8804 31.1425L12.9001 29.2835ZM5.57929 39.6425C6.42172 40.3923 7.5104 40.8065 8.63839 40.8065C9.76638 40.8065 10.8551 40.3923 11.6975 39.6425C12.4686 38.841 12.8992 37.7722 12.8992 36.6603C12.8992 35.5483 12.4686 34.4795 11.6975 33.678C10.8551 32.9283 9.76638 32.514 8.63839 32.514C7.5104 32.514 6.42172 32.9283 5.57929 33.678C4.80823 34.4795 4.37755 35.5483 4.37755 36.6603C4.37755 37.7722 4.80823 38.841 5.57929 39.6425Z" fill="#041223"/>
<path d="M24.2494 31.898C24.5726 30.9774 25.2133 30.2019 26.0566 29.7106C26.9142 29.22 27.8878 28.9682 28.8758 28.9815V33.3431C27.7513 33.1812 26.6066 33.4409 25.6623 34.0723C24.7203 34.6985 24.2494 35.7429 24.2494 37.2056V44.51H20.3064V29.2836H24.2494V31.898Z" fill="#041223"/>
<path d="M69.5018 28.8566C70.2805 28.823 71.0572 28.9582 71.7787 29.253C72.5001 29.5479 73.1492 29.9952 73.6813 30.5644C74.7729 31.825 75.3356 33.4581 75.252 35.1232V44.51H71.309V35.3991C71.3606 34.6328 71.1265 33.8746 70.6518 33.2708C70.4128 33.013 70.1199 32.8111 69.7939 32.6794C69.4679 32.5477 69.1168 32.4894 68.7658 32.5088C68.3745 32.4879 67.9836 32.5563 67.6226 32.7088C67.2617 32.8613 66.9402 33.0939 66.6825 33.389C66.1367 34.1246 65.871 35.0306 65.9334 35.9443V44.4837H61.9904V35.3991C62.042 34.6328 61.8079 33.8746 61.3332 33.2708C61.0942 33.013 60.8013 32.8111 60.4753 32.6794C60.1493 32.5477 59.7982 32.4894 59.4472 32.5088C59.0563 32.4913 58.6664 32.5612 58.306 32.7135C57.9456 32.8658 57.6238 33.0966 57.3639 33.389C56.8006 34.1168 56.5246 35.0263 56.5885 35.9443V44.4837H52.6455V29.2835H56.5885V30.8994C57.0542 30.2209 57.6889 29.6756 58.43 29.3173C59.171 28.9591 59.9928 28.8002 60.8141 28.8566C61.639 28.8078 62.4616 28.9867 63.1917 29.3736C63.9219 29.7605 64.5316 30.3406 64.9542 31.0505C65.4596 30.325 66.1437 29.7419 66.9402 29.3576C67.7368 28.9733 68.619 28.8007 69.5018 28.8566Z" fill="#041223"/>
<path d="M40.2512 25.0601L29.0269 44.4905H51.4756L40.2512 25.0601Z" fill="#DB2645"/>
</g>
<defs>
<clipPath id="clip0_1_831">
<rect width="77" height="51" fill="white"/>
</clipPath>
</defs>
</svg>
